# xmcd
#
# Track frame offsets:
#	150
#	14796
#	29242
#	40424
#	58288
#	69884
#	81884
#	96780
#	108999
#	121208
#	133900
#	149598
#
# Disc length: 2198 seconds
#
# Revision: 0
# Processed by: cddbd v1.5.2PL0 Copyright (c) Steve Scherf et al.
# Submitted via: audiograbber 1.83.01
#
DISCID=b708940c
DTITLE=Various Artist - Hillcrest #34
DYEAR=1900
DGENRE=Country
TTITLE0=Donny Richmond - Ask The Man Upstairs
TTITLE1=Mike Lee - Already Lonely
TTITLE2=Debbie Bergeron - The Right Person at the Right Time
TTITLE3=Graham Clark - Angelyne
TTITLE4=Vannatta - Lovin' You Baby
TTITLE5=Brad D. Kepler - The Saddle Next to Mine
TTITLE6=Sherry Lynn - Simple Things
TTITLE7=Marcus Tribble - Lay Me Down Carolina 
TTITLE8=Paul Dow - Down On Davis Road
TTITLE9=Ren Lehman - What Can I Say
TTITLE10=Rick Wilson - Hold On To Faith
TTITLE11=Beggars - Preacher, I Have Sinned
EXTD=
EXTT0=
EXTT1=
EXTT2=
EXTT3=
EXTT4=
EXTT5=
EXTT6=
EXTT7=
EXTT8=
EXTT9=
EXTT10=
EXTT11=
PLAYORDER=
